<svg width="312" height="72" viewBox="0 0 312 72" fill="none" xmlns="http://www.w3.org/2000/svg">
<path d="M90.9108 21.1201C90.1253 20.6513 89.3102 20.2337 88.4708 19.8701C87.7908 24.0901 90.2208 25.3701 90.6808 25.5501C91.2596 25.7242 91.8245 25.9415 92.3708 26.2001L92.8608 24.6301C92.9056 23.9198 92.7457 23.2116 92.4 22.5894C92.0544 21.9673 91.5376 21.4573 90.9108 21.1201V21.1201Z" fill="black"/>
<path d="M97.2194 32.7202C97.2194 32.5202 96.9694 31.2502 96.6194 31.1602C96.1507 31.6879 95.7918 32.3036 95.5634 32.9715C95.3351 33.6393 95.2419 34.3459 95.2894 35.0502C95.278 35.1096 95.278 35.1707 95.2894 35.2302C95.2894 35.2802 95.2894 35.3102 95.3394 35.3702V35.4402L95.4794 35.7102L96.2194 36.7702C96.9369 35.5451 97.2842 34.1384 97.2194 32.7202V32.7202Z" fill="black"/>
<path d="M102.31 33.9998C102.231 34.7673 102.194 35.5384 102.2 36.3098C105.28 34.0598 105.42 31.7498 105.4 31.3098C105.342 30.822 105.316 30.331 105.32 29.8398L104.11 30.5298C103.08 31.4077 102.435 32.6528 102.31 33.9998V33.9998Z" fill="black"/>
<path d="M74.8705 20.6401C74.2647 20.2691 73.6368 19.9351 72.9905 19.6401C72.3805 22.9401 74.2505 24.0001 74.6005 24.1501C75.0499 24.3015 75.4878 24.4853 75.9105 24.7001L76.3205 23.4901C76.3722 22.9267 76.2634 22.3601 76.0069 21.8558C75.7503 21.3516 75.3564 20.9301 74.8705 20.6401V20.6401Z" fill="black"/>
<path d="M102.551 26.9998C102.561 25.9448 102.514 24.8899 102.411 23.8398C98.7209 27.5998 98.8409 30.7698 98.9009 31.3098C99.0414 31.9691 99.1349 32.6374 99.1809 33.3098L100.651 32.0998C101.861 30.6741 102.533 28.8697 102.551 26.9998V26.9998Z" fill="black"/>
<path d="M112.36 30.67C112.5 30.31 112.84 29.57 112.82 29.52C111.785 30.0601 110.964 30.9341 110.49 32C110.437 32.2491 110.363 32.4932 110.27 32.73L110.95 32.4C111.571 31.9652 112.059 31.3662 112.36 30.67V30.67Z" fill="black"/>
<path d="M105.07 5.30008C105.07 5.17008 104.93 4.60008 104.81 4.00008C104.81 3.76008 104.71 3.52008 104.66 3.30008C104.65 3.18515 104.603 3.07661 104.525 2.99153C104.447 2.90645 104.343 2.84965 104.23 2.83008C103.536 3.19803 102.911 3.68164 102.38 4.26008C101.898 4.80582 101.555 5.46016 101.381 6.16719C101.207 6.87421 101.206 7.61288 101.38 8.32008C101.637 8.90846 101.844 9.51723 102 10.1401L103.58 9.39008C104.178 8.90952 104.633 8.27422 104.896 7.55317C105.159 6.83212 105.219 6.05288 105.07 5.30008V5.30008Z" fill="black"/>
<path d="M87.5392 36.3201C86.6076 36.0241 85.6593 35.7836 84.6992 35.6001C86.6992 39.9901 89.5492 40.7401 90.0492 40.8201C90.6687 40.8673 91.2838 40.9609 91.8892 41.1001L91.3392 39.4201C90.5242 37.9316 89.161 36.8195 87.5392 36.3201V36.3201Z" fill="black"/>
<path d="M112 35.9299C112.793 35.359 113.551 34.7412 114.27 34.0799C109.54 33.0799 107.27 34.9199 106.89 35.2799C106.484 35.7463 106.046 36.184 105.58 36.5899L107.25 37.1499C108.932 37.3812 110.638 36.9432 112 35.9299V35.9299Z" fill="black"/>
<path d="M90.2696 27.4299C89.3483 26.5423 88.3802 25.7045 87.3696 24.9199C87.1296 31.2399 90.0096 33.7899 90.5496 34.1799C91.2505 34.5995 91.919 35.0708 92.5496 35.5899L92.9096 33.3099C92.8221 31.0825 91.876 28.9754 90.2696 27.4299V27.4299Z" fill="black"/>
<path d="M99.05 22.7501C98.9948 21.2911 98.8647 19.8358 98.66 18.3901C93.32 23.2001 93.66 27.5701 93.81 28.3301C94.0532 29.226 94.2303 30.1384 94.34 31.0601L96.49 29.5401C97.3491 28.637 98.0183 27.5708 98.458 26.4045C98.8977 25.2382 99.0991 23.9956 99.05 22.7501V22.7501Z" fill="black"/>
<path d="M116.42 30.2801C116.636 29.656 116.81 29.0178 116.94 28.3701C113.84 29.0801 113.3 30.9901 113.24 31.3701C113.187 31.7849 113.107 32.1957 113 32.6001L114.18 32.4901C114.703 32.3272 115.179 32.0416 115.568 31.6571C115.958 31.2727 116.25 30.8005 116.42 30.2801V30.2801Z" fill="black"/>
<path d="M79.6205 25.3001C78.9924 25.2392 78.3613 25.2159 77.7305 25.2301C78.4505 28.0801 80.3305 28.1701 80.7305 28.1401C80.9869 28.1556 81.244 28.1556 81.5005 28.1401C81.658 28.0981 81.8184 28.068 81.9805 28.0501L81.5105 27.0501C81.1405 26.1201 80.5805 25.3201 79.6205 25.3001Z" fill="black"/>
<path d="M83.8307 29.7899C82.969 29.6092 82.0976 29.479 81.2207 29.3999C82.6607 33.3999 85.2207 33.8099 85.7307 33.8299C86.3016 33.8137 86.873 33.8371 87.4407 33.8999L87.1007 32.3599C86.7998 31.702 86.3461 31.1255 85.7773 30.6784C85.2085 30.2314 84.5411 29.9268 83.8307 29.7899V29.7899Z" fill="black"/>
<path d="M110.521 30.35C110.778 29.593 110.992 28.8217 111.161 28.04C107.391 28.89 106.721 31.2 106.651 31.63C106.604 32.1461 106.517 32.6577 106.391 33.16L107.831 33.03C108.46 32.8303 109.033 32.4829 109.501 32.0166C109.969 31.5504 110.319 30.979 110.521 30.35V30.35Z" fill="black"/>
<path d="M110.51 14.85C110.309 13.8943 110.059 12.9497 109.76 12.02C106.48 15.44 107.21 18.27 107.38 18.76C107.647 19.3255 107.871 19.9105 108.05 20.51L109.42 19.41C109.931 18.7797 110.294 18.0428 110.482 17.2537C110.671 16.4646 110.68 15.6432 110.51 14.85V14.85Z" fill="black"/>
<path d="M103.459 38.0001C103.299 38.1201 102.219 38.8601 102.319 39.3501C103.519 40.0301 105.129 41.3501 106.569 39.7901C106.629 39.7901 106.769 39.5901 106.809 39.5401C106.831 39.5121 106.858 39.4883 106.889 39.4701L107.119 39.1201L107.719 37.7501C106.569 37.5601 104.719 37.1501 103.459 38.0001Z" fill="black"/>
<path d="M117.32 25.9299C117.32 26.0899 117.07 27.1099 117.32 27.2899C118.14 26.8499 119.41 26.4599 119.49 24.8299C119.5 24.7435 119.5 24.6563 119.49 24.5699C119.485 24.5401 119.485 24.5097 119.49 24.4799V24.1699L119.25 23.1699C118.356 23.8868 117.687 24.8445 117.32 25.9299V25.9299Z" fill="black"/>
<path d="M117.249 20.9998C117.249 21.1298 117.389 21.9998 117.619 21.9998C118.119 21.4398 118.959 20.7898 118.569 19.5398C118.555 19.4715 118.535 19.4046 118.509 19.3398V19.2698L118.409 19.0398L117.939 18.3398C117.455 19.1403 117.215 20.0649 117.249 20.9998V20.9998Z" fill="black"/>
<path d="M101.291 36.7202C101.241 36.5202 100.911 34.7202 100.831 34.7202C98.0706 36.5302 98.5106 38.5802 98.6306 38.9402C98.8132 39.364 98.9604 39.8022 99.0706 40.2502L100.211 39.7102C100.653 39.363 100.988 38.8987 101.179 38.37C101.37 37.8414 101.409 37.2697 101.291 36.7202V36.7202Z" fill="black"/>
<path d="M93.4102 36.8399C92.8725 36.4884 92.3111 36.1743 91.7302 35.8999C91.1902 38.8999 92.8502 39.8199 93.1702 39.9599C93.5719 40.0978 93.963 40.2649 94.3402 40.4599L94.7102 39.3699C94.7528 38.8687 94.6535 38.3656 94.4236 37.9182C94.1937 37.4708 93.8425 37.0971 93.4102 36.8399V36.8399Z" fill="black"/>
<path d="M82.7902 35.2699C82.4502 34.9681 82.0893 34.6908 81.7101 34.4399C81.5901 36.6499 82.7102 37.4899 82.8602 37.6199C83.1161 37.7578 83.3633 37.9114 83.6001 38.0799L83.7401 37.2799C83.7323 36.8969 83.6436 36.5198 83.4799 36.1735C83.3162 35.8271 83.0811 35.5192 82.7902 35.2699V35.2699Z" fill="black"/>
<path d="M82.3801 13.45C81.4749 12.9142 80.54 12.4301 79.5801 12C79.9701 17.13 82.7601 18.63 83.2801 18.85C83.9287 19.0503 84.5606 19.301 85.1701 19.6L85.2601 17.7C85.1244 16.8226 84.7956 15.9863 84.2976 15.2514C83.7996 14.5165 83.1446 13.9012 82.3801 13.45V13.45Z" fill="black"/>
<path d="M75.901 16.6101C75.831 16.5001 75.381 15.7801 75.071 15.8301C74.661 16.5901 73.8709 17.5901 74.8109 18.5701C74.8592 18.6283 74.9127 18.6819 74.971 18.7301C74.971 18.7301 74.971 18.7301 74.971 18.7801L75.191 18.9401L76.0209 19.3701C76.3181 18.4662 76.2755 17.4849 75.901 16.6101Z" fill="black"/>
<path d="M88.7803 5.83021C88.8503 5.09021 88.8703 3.56021 88.9603 3.47021C91.4403 6.56021 91.2803 8.92021 91.2203 9.32021C91.1151 9.79819 91.0416 10.2826 91.0003 10.7702L90.0003 9.77022C89.1838 8.62062 88.7563 7.24006 88.7803 5.83021V5.83021Z" fill="black"/>
<path d="M86.5696 4.99994C86.0321 4.61215 85.471 4.25814 84.8896 3.93994C84.4696 7.06994 86.1396 8.14994 86.4596 8.30994C86.8612 8.47122 87.252 8.65828 87.6296 8.86994L87.9396 7.72994C87.9634 7.19577 87.85 6.66439 87.6102 6.18648C87.3704 5.70857 87.0121 5.30008 86.5696 4.99994Z" fill="black"/>
<path d="M77.4995 30.26C77.1742 30.0867 76.8405 29.9299 76.4995 29.79C75.9995 31.49 76.9995 32 77.2395 32C77.4916 32.0621 77.7389 32.1423 77.9795 32.24L78.2595 31.61C78.2995 31.3327 78.2466 31.0499 78.1092 30.8057C77.9717 30.5616 77.7573 30.3697 77.4995 30.26V30.26Z" fill="black"/>
<path d="M75.8497 26.7098C75.7739 26.6192 75.6902 26.5356 75.5997 26.4598L75.3097 26.1798C75.1325 26.0098 74.9301 25.8681 74.7097 25.7598C74.6504 26.2449 74.7104 26.7372 74.8847 27.1938C75.059 27.6504 75.3422 28.0575 75.7097 28.3798C75.9125 28.4913 76.1064 28.6184 76.2897 28.7598L76.3797 28.1098C76.3747 27.595 76.1868 27.0988 75.8497 26.7098V26.7098Z" fill="black"/>
<path d="M78.9394 34.42C79.0558 34.4297 79.1729 34.4297 79.2894 34.42H79.6894C79.9315 34.4543 80.1773 34.4543 80.4194 34.42C80.168 34.012 79.8226 33.6702 79.412 33.4232C79.0014 33.1761 78.5376 33.031 78.0594 33C77.8278 33.037 77.5939 33.057 77.3594 33.06L77.6894 33.63C78.0018 34.0303 78.4437 34.3096 78.9394 34.42V34.42Z" fill="black"/>
<path d="M81.0593 23.2498L82.5193 23.1998H83.3093C83.4424 23.2037 83.5739 23.1702 83.6888 23.103C83.8038 23.0358 83.8975 22.9377 83.9593 22.8198C83.8224 21.9863 83.5307 21.1859 83.0993 20.4598C82.6846 19.8088 82.0982 19.2851 81.4047 18.9463C80.7112 18.6075 79.9377 18.4668 79.1693 18.5398C78.4664 18.7132 77.7508 18.8303 77.0293 18.8898L77.2593 20.8098C77.5537 21.5657 78.08 22.2091 78.7627 22.6474C79.4454 23.0858 80.2494 23.2966 81.0593 23.2498Z" fill="black"/>
<path d="M84.6898 26.56L85.5298 26.64L85.9898 26.69C86.2898 26.69 86.3098 26.54 86.3398 26.52C86.1869 26.0272 85.9574 25.5615 85.6598 25.14C85.3803 24.7448 85.0163 24.4169 84.5942 24.1799C84.1722 23.9429 83.7027 23.8029 83.2198 23.77C82.8169 23.7985 82.4126 23.7985 82.0098 23.77L82.2898 24.86C82.5199 25.3183 82.8592 25.713 83.2777 26.0095C83.6961 26.3059 84.1811 26.495 84.6898 26.56V26.56Z" fill="black"/>
<path d="M80 30.4499C79.69 30.2899 79.06 29.8999 79 29.9099C79.3753 30.9083 80.0811 31.7482 81 32.2899C81.2191 32.3732 81.4329 32.4701 81.64 32.5799L81.41 31.9299C81.0836 31.3173 80.596 30.8055 80 30.4499V30.4499Z" fill="black"/>
<path d="M97.6907 5.42018L97.8907 6.42018C97.8907 6.60018 97.9707 6.79018 98.0107 6.96018C98.0155 7.04856 98.0496 7.13284 98.1075 7.19979C98.1654 7.26675 98.2439 7.31261 98.3307 7.33018C98.869 7.04278 99.3557 6.66764 99.7707 6.22018C100.145 5.79866 100.412 5.29326 100.549 4.74671C100.687 4.20016 100.691 3.62854 100.561 3.08018C100.364 2.62575 100.2 2.1579 100.071 1.68018L98.8507 2.25018C98.3873 2.6231 98.0344 3.11535 97.83 3.67392C97.6256 4.2325 97.5774 4.83625 97.6907 5.42018V5.42018Z" fill="black"/>
<path d="M87.1991 17.9002L87.9591 18.2802L88.3791 18.4802C88.6491 18.6102 88.7291 18.4802 88.7591 18.4802C88.7907 17.9654 88.7401 17.4489 88.6091 16.9502C88.4859 16.4826 88.2606 16.0481 87.9493 15.678C87.6381 15.308 87.2486 15.0116 86.8091 14.8102C86.4165 14.7049 86.0322 14.5712 85.6591 14.4102L85.5391 15.5302C85.6038 16.0299 85.7886 16.5065 86.0777 16.9192C86.3668 17.332 86.7515 17.6685 87.1991 17.9002V17.9002Z" fill="black"/>
<path d="M77.0698 16.0001C77.4818 16.483 77.9191 16.9436 78.3798 17.3801C78.7398 14.2501 77.4399 12.8501 77.1899 12.6301C76.8745 12.3884 76.574 12.1279 76.2898 11.8501L75.9998 13.0001C75.9684 14.0988 76.3502 15.1693 77.0698 16.0001V16.0001Z" fill="black"/>
<path d="M101.29 22.0001C101.115 21.6127 100.918 21.2354 100.7 20.8701C99.48 22.5001 100.05 23.6401 100.18 23.8701C100.351 24.0881 100.504 24.3188 100.64 24.5601L101.17 24.0201C101.359 23.7211 101.47 23.3789 101.491 23.0256C101.512 22.6723 101.443 22.3194 101.29 22.0001V22.0001Z" fill="black"/>
<path d="M108.18 5.4701C108.094 5.00793 107.984 4.55063 107.85 4.1001C106.2 5.6501 106.52 7.0001 106.6 7.2501C106.724 7.52538 106.828 7.80949 106.91 8.1001L107.59 7.6101C107.85 7.32503 108.038 6.98262 108.141 6.61075C108.243 6.23888 108.257 5.84806 108.18 5.4701V5.4701Z" fill="black"/>
<path d="M81.2091 9.30977C80.8656 9.02159 80.5049 8.75443 80.1291 8.50977C79.7991 10.6298 80.8691 11.4398 81.0691 11.5598C81.3319 11.6835 81.5829 11.8308 81.8191 11.9998L82.0491 11.2298C82.072 10.866 82.0078 10.502 81.8617 10.168C81.7156 9.83409 81.4918 9.53985 81.2091 9.30977V9.30977Z" fill="black"/>
<path d="M79.3107 10.6402C79.2563 10.3227 79.1828 10.0088 79.0907 9.7002C77.9607 10.7702 78.1707 11.7002 78.2307 11.8702C78.3178 12.0603 78.3881 12.2578 78.4407 12.4602L78.9107 12.1202C79.0859 11.9204 79.2131 11.6832 79.2824 11.4266C79.3518 11.1701 79.3614 10.9011 79.3107 10.6402V10.6402Z" fill="black"/>
<path d="M103.23 26.6198C103.247 27.4029 103.31 28.1843 103.42 28.9598C106.65 27.0898 106.49 24.7498 106.42 24.3398C106.286 23.8478 106.189 23.3464 106.13 22.8398L104.83 23.3698C104.312 23.7343 103.895 24.2229 103.615 24.7907C103.336 25.3585 103.203 25.9875 103.23 26.6198V26.6198Z" fill="black"/>
<path d="M99 17.6001C99.22 18.2001 99.53 19.0801 99.69 19.3701C99.7494 19.4237 99.8169 19.4676 99.89 19.5001C102.42 16.9601 101.55 15.0601 101.38 14.7001C101.331 14.4948 101.264 14.2941 101.18 14.1001C101.067 13.915 100.922 13.7523 100.75 13.6201C100.75 13.6201 100.68 13.6201 100.69 13.6201L99.79 14.2401C98.68 14.8901 98.55 16.5301 99 17.6001Z" fill="black"/>
<path d="M86.3691 22.5602L86.8291 22.7802L87.0791 22.9002C87.2391 22.9802 87.2891 22.9002 87.3091 22.9002C87.3236 22.5902 87.2899 22.2798 87.2091 21.9802C87.1336 21.6996 86.9979 21.4389 86.8114 21.2161C86.6249 20.9933 86.392 20.8139 86.1291 20.6902C85.894 20.626 85.6634 20.5458 85.4391 20.4502L85.3691 21.1202C85.4063 21.4234 85.5168 21.713 85.691 21.9639C85.8653 22.2148 86.098 22.4195 86.3691 22.5602V22.5602Z" fill="black"/>
<path d="M96.1398 4.28982C96.0029 3.53816 95.8158 2.79651 95.5798 2.06982C92.6398 4.17982 93.1898 6.40982 93.3298 6.79982C93.5405 7.25521 93.7144 7.72671 93.8498 8.20982L95.0698 7.56982C95.5272 7.17025 95.8681 6.6545 96.0564 6.07714C96.2447 5.49977 96.2736 4.88223 96.1398 4.28982V4.28982Z" fill="black"/>
<path d="M88.56 11.2998C88.02 11.0498 87.23 10.6798 86.94 10.5898C86.875 10.5993 86.8112 10.6161 86.75 10.6398C87.39 14.0298 89.19 14.6998 89.54 14.8298C89.7058 14.9308 89.8798 15.0177 90.06 15.0898C90.2448 15.1273 90.4352 15.1273 90.62 15.0898C90.62 15.0898 90.62 15.0898 90.62 15.0898V14.0898C90.5458 13.4868 90.3171 12.9132 89.9563 12.4244C89.5954 11.9357 89.1144 11.5483 88.56 11.2998V11.2998Z" fill="black"/>
<path d="M84.6498 12.7098C84.7898 12.8298 85.6498 13.6598 85.9598 13.5298C85.9998 12.4698 86.4099 10.9998 84.8699 9.99979C84.795 9.92875 84.7109 9.8682 84.6199 9.81979H84.5499L84.2299 9.65979L83.0898 9.27979C83.2753 10.5476 83.8162 11.7368 84.6498 12.7098V12.7098Z" fill="black"/>
<path d="M82.0003 7.84986C82.0003 7.89986 82.1203 8.09986 82.2203 8.31986L82.3403 8.56986C82.354 8.61035 82.3816 8.64465 82.4183 8.66664C82.4549 8.68862 82.4982 8.69686 82.5403 8.68986C82.7446 8.45602 82.9131 8.19316 83.0403 7.90986C83.1622 7.64659 83.2253 7.35996 83.2253 7.06986C83.2253 6.77976 83.1622 6.49314 83.0403 6.22986C82.889 6.03539 82.7551 5.82792 82.6403 5.60986L82.1703 6.09986C81.999 6.35456 81.8938 6.64788 81.8641 6.95338C81.8345 7.25888 81.8813 7.56696 82.0003 7.84986V7.84986Z" fill="black"/>
<path d="M91.5506 4.99986L92.0106 5.22986L92.2606 5.34986C92.4306 5.42986 92.4705 5.34986 92.4905 5.34986C92.5127 5.04032 92.4822 4.72925 92.4006 4.42986C92.3303 4.14202 92.197 3.87338 92.0102 3.64336C91.8234 3.41335 91.5878 3.22771 91.3205 3.09986C91.0854 3.03562 90.8548 2.95543 90.6305 2.85986L90.5605 3.52986C90.5902 3.83791 90.6963 4.13367 90.8692 4.39036C91.0421 4.64704 91.2763 4.85654 91.5506 4.99986V4.99986Z" fill="black"/>
<path d="M95.741 11.9301C95.811 12.0901 96.331 13.5501 96.401 13.6001C98.401 11.6001 97.741 9.8901 97.591 9.6001C97.3867 9.27874 97.203 8.94473 97.041 8.6001L96.201 9.2601C95.9021 9.6285 95.7028 10.0675 95.6222 10.535C95.5417 11.0025 95.5826 11.4829 95.741 11.9301V11.9301Z" fill="black"/>
<path d="M113.77 21.67C113.739 20.6932 113.659 19.7186 113.53 18.75C110.03 22.09 110.25 25.01 110.34 25.52C110.5 26.117 110.613 26.7255 110.68 27.34L112.09 26.28C113.223 25.0174 113.825 23.3658 113.77 21.67Z" fill="black"/>
<path d="M109.6 24.7101C109.642 24.0908 109.642 23.4694 109.6 22.8501C107 24.3301 107 26.1901 107 26.5201C107.081 26.9122 107.132 27.3101 107.15 27.7101L108.15 27.2901C108.582 27.0092 108.94 26.6277 109.192 26.1784C109.445 25.7291 109.585 25.2253 109.6 24.7101V24.7101Z" fill="black"/>
<path d="M110.001 10.7599C110.311 11.2099 110.761 11.8899 110.951 12.0999C111.007 12.1198 111.063 12.1365 111.121 12.1499C112.121 9.08992 111.041 7.68992 110.821 7.41992C110.734 7.26046 110.637 7.1068 110.531 6.95992C110.414 6.83352 110.271 6.7345 110.111 6.66992C110.111 6.66992 110.111 6.66992 110.061 6.66992L109.631 7.50992C109.418 8.03979 109.34 8.61433 109.405 9.18171C109.469 9.7491 109.674 10.2915 110.001 10.7599V10.7599Z" fill="black"/>
<path d="M91.6794 14.9999C91.8994 15.7099 92.2294 16.7599 92.3894 17.0999C92.4557 17.1595 92.5297 17.21 92.6094 17.2499C95.4994 14.1299 94.6094 11.8699 94.4094 11.4399C94.3653 11.1985 94.3018 10.9611 94.2194 10.7299C94.1031 10.5127 93.9431 10.3221 93.7494 10.1699C93.7494 10.1699 93.6694 10.1699 93.6794 10.1699L92.6794 10.9499C91.4694 11.7499 91.2794 13.7299 91.6794 14.9999Z" fill="black"/>
<path d="M93.0008 20.52C93.1308 21.02 93.3108 21.77 93.4108 22.02C93.4516 22.0564 93.4951 22.0899 93.5408 22.12C95.5408 19.78 94.9608 18.18 94.8608 17.87C94.8371 17.6975 94.8003 17.527 94.7508 17.36C94.6893 17.2262 94.6047 17.1043 94.5008 17L93.8208 17.59C93.447 17.9689 93.1756 18.4365 93.0322 18.949C92.8888 19.4616 92.878 20.0021 93.0008 20.52V20.52Z" fill="black"/>
<path d="M97.9293 15.56C97.9014 15.1267 97.8446 14.6958 97.7593 14.27C97.343 14.6801 97.0216 15.1765 96.8177 15.7242C96.6138 16.2718 96.5324 16.8575 96.5793 17.44C96.6545 17.703 96.7146 17.9701 96.7593 18.24L97.3293 17.7C97.7753 17.0797 97.9878 16.3218 97.9293 15.56V15.56Z" fill="black"/>
<path d="M104.1 13.18C104.03 13.83 103.92 14.79 103.93 15.18C103.969 15.2591 104.013 15.3359 104.06 15.41C107.61 14.56 107.67 12.41 107.68 11.96C107.728 11.7529 107.758 11.5422 107.77 11.33C107.747 11.0984 107.686 10.8721 107.59 10.66C107.59 10.66 107.52 10.66 107.53 10.66H106.4C105.11 10.62 104.23 12 104.1 13.18Z" fill="black"/>
<path d="M101 11.5002C101.05 11.1002 101.24 10.3002 101.2 10.2202C99.24 11.0002 99 12.2802 99 12.5102C99.0225 12.7864 99.0225 13.064 99 13.3402L99.75 13.1502C100.07 12.9877 100.348 12.7547 100.565 12.4689C100.781 12.1831 100.93 11.8519 101 11.5002Z" fill="black"/>
<path d="M115.93 16.4798C116.393 16.8458 116.881 17.1799 117.39 17.4798C117.89 14.7398 116.39 13.7498 116.15 13.5998C115.804 13.4474 115.47 13.2703 115.15 13.0698L114.82 14.0698C114.782 14.5331 114.864 14.9984 115.058 15.4206C115.253 15.8428 115.553 16.2076 115.93 16.4798V16.4798Z" fill="black"/>
<path d="M114.68 9.71021C114.521 9.28497 114.334 8.87073 114.12 8.47021C112.69 10.0802 113.24 11.3202 113.36 11.5302C113.528 11.7725 113.679 12.0265 113.81 12.2902L114.42 11.7702C114.638 11.4784 114.776 11.1354 114.821 10.7744C114.867 10.4135 114.818 10.0469 114.68 9.71021V9.71021Z" fill="black"/>
<path d="M111.131 16.6902C111.133 17.1881 111.163 17.6856 111.221 18.1802C113.221 16.9602 113.221 15.4802 113.151 15.1802C113.066 14.8522 113.009 14.5177 112.981 14.1802L112.161 14.5302C111.822 14.7747 111.549 15.1008 111.369 15.4783C111.189 15.8558 111.107 16.2726 111.131 16.6902V16.6902Z" fill="black"/>
<path d="M114.629 24.9999C114.719 25.4391 114.832 25.8731 114.969 26.2999C114.969 26.2999 115.079 26.3799 115.089 26.3899C116.769 24.3899 116.319 22.9499 116.229 22.6799C116.215 22.5305 116.185 22.383 116.139 22.2399C116.083 22.1118 116.001 21.9963 115.899 21.8999C115.899 21.8999 115.899 21.8999 115.899 21.8999L115.319 22.4099C114.996 22.749 114.763 23.164 114.643 23.6166C114.522 24.0693 114.518 24.545 114.629 24.9999V24.9999Z" fill="black"/>
<path d="M115.8 18.2299C115.666 17.7905 115.506 17.3597 115.32 16.9399C113.98 18.7199 114.44 20.0099 114.54 20.2299C114.688 20.4839 114.818 20.7478 114.93 21.0199L115.51 20.4299C115.714 20.1057 115.845 19.7413 115.895 19.3616C115.945 18.9819 115.913 18.5959 115.8 18.2299V18.2299Z" fill="black"/>
<path d="M93.1305 45.1301C92.7405 46.9301 93.5705 53.2801 92.0605 54.3801L94.7206 54.7801L98.6005 54.5901H100.771C99.6205 53.5901 99.9505 51.9101 99.8905 51.2801C99.6347 49.1731 99.5911 47.0458 99.7606 44.9301C99.7606 44.5601 99.5705 44.1301 99.6305 43.7901C99.8944 42.8737 100.363 42.0292 101.001 41.3201L97.4406 40.8701L93.6805 41.3201C93.6412 42.6068 93.4567 43.8849 93.1305 45.1301V45.1301Z" fill="black"/>
<path d="M95.7094 39C95.9394 39.2 96.3594 39.66 96.4294 39.67C96.9094 38.18 96.1994 37.49 96.0594 37.39C95.879 37.2698 95.7054 37.1396 95.5394 37L95.2894 37.53C95.2303 37.7906 95.2378 38.0619 95.3112 38.3188C95.3846 38.5757 95.5216 38.81 95.7094 39Z" fill="black"/>
<path d="M104.309 17.5501C104.369 17.1301 104.829 17.2001 105.139 16.9201C105.449 16.6401 105.409 16.1801 105.429 15.9201V15.6401C105.179 15.7801 105.039 15.7801 104.719 15.9501C104.559 16.0301 104.459 16.0301 104.289 16.3801C104.2 16.5905 104.143 16.8129 104.119 17.0401V17.6001C104.199 17.5901 104.209 17.5501 104.309 17.5501Z" fill="black"/>
<path d="M105.1 17.4902C104.772 17.5995 104.438 17.6897 104.1 17.7602C103.58 17.7602 102.87 17.1602 102.15 17.6402C101.818 17.9032 101.579 18.2647 101.465 18.6726C101.352 19.0805 101.371 19.5139 101.52 19.9102C101.622 20.2963 101.784 20.6641 102 21.0002C102.31 21.5302 102.67 22.0602 103.35 22.0602C103.61 22.0602 104.02 21.8502 104.22 21.8902C104.42 21.9302 104.78 22.0202 105.06 22.0602C106.41 22.2802 108.21 17.4002 105.1 17.4902Z" fill="black"/>
<path d="M5.29031 48.5002V51.7902C5.27519 52.2503 5.336 52.7098 5.47031 53.1502C5.82767 53.3123 6.21829 53.3877 6.61031 53.3702H6.76031V54.1202H1.57031V53.3702H1.72031C2.26031 53.3702 2.58031 53.2402 2.72031 53.0902C2.87243 52.6748 2.92717 52.23 2.88031 51.7902V44.5002C2.92319 44.0644 2.87204 43.6245 2.73031 43.2102C2.62031 43.0602 2.30031 42.9702 1.73031 42.9202H1.57031V42.1602H10.1703V44.4002H9.00031V44.2602C9.00031 44.0102 9.00031 43.8302 9.00031 43.7202C9.01681 43.606 9.00641 43.4897 8.96995 43.3803C8.93349 43.2709 8.87198 43.1715 8.79031 43.0902C8.4729 42.9646 8.12927 42.92 7.79031 42.9602H5.29031V47.8002H7.00031C7.36298 47.8313 7.72765 47.8313 8.09031 47.8002C8.18031 47.8002 8.22031 47.6502 8.22031 47.4302C8.22031 47.4302 8.22031 47.2802 8.22031 47.0602V46.9002H9.05031V49.4902H8.22031V49.3502C8.22031 49.1802 8.22031 49.0702 8.22031 49.0202C8.22031 48.8102 8.15031 48.6802 8.02031 48.6302C7.69249 48.556 7.35575 48.5291 7.02031 48.5502L5.29031 48.5002Z" fill="black"/>
<path d="M15.8606 54.3301C15.2517 54.363 14.6425 54.2699 14.0712 54.0565C13.4999 53.8432 12.9789 53.5142 12.5406 53.0901C11.7577 52.1299 11.3301 50.929 11.3301 49.6901C11.3301 48.4512 11.7577 47.2502 12.5406 46.2901C12.9789 45.866 13.4999 45.537 14.0712 45.3236C14.6425 45.1103 15.2517 45.0171 15.8606 45.0501C16.4681 45.0167 17.0759 45.1097 17.6456 45.3231C18.2153 45.5365 18.7346 45.8658 19.1706 46.2901C19.5887 46.7476 19.9111 47.284 20.1189 47.8679C20.3267 48.4518 20.4157 49.0713 20.3806 49.6901C20.4157 50.3088 20.3267 50.9284 20.1189 51.5123C19.9111 52.0961 19.5887 52.6326 19.1706 53.0901C18.7346 53.5144 18.2153 53.8436 17.6456 54.0571C17.0759 54.2705 16.4681 54.3635 15.8606 54.3301V54.3301ZM15.8606 53.4801C16.17 53.487 16.4743 53.3999 16.7331 53.2302C16.992 53.0606 17.1934 52.8165 17.3106 52.5301C17.6807 51.6311 17.8447 50.6607 17.7906 49.6901C17.8447 48.7195 17.6807 47.749 17.3106 46.8501C17.1882 46.5672 16.9857 46.3263 16.728 46.1571C16.4704 45.9879 16.1689 45.8977 15.8606 45.8977C15.5524 45.8977 15.2509 45.9879 14.9932 46.1571C14.7356 46.3263 14.5331 46.5672 14.4106 46.8501C14.0406 47.749 13.8766 48.7195 13.9306 49.6901C13.8766 50.6607 14.0406 51.6311 14.4106 52.5301C14.529 52.8157 14.7306 53.059 14.9893 53.2285C15.2479 53.3979 15.5515 53.4856 15.8606 53.4801Z" fill="black"/>
<path d="M24.8407 47.7898V51.7898C24.7912 52.233 24.846 52.6816 25.0007 53.0998C25.1207 53.2398 25.5007 53.3298 26.1507 53.3698H26.3007V54.1198H21.2207V53.3698H21.3707C21.9107 53.3698 22.2307 53.2398 22.3707 53.0898C22.5218 52.6742 22.5765 52.2297 22.5307 51.7898V47.5998C22.5753 47.1567 22.5206 46.7092 22.3707 46.2898C22.2707 46.1398 21.9507 46.0498 21.3707 46.0098H21.2207V45.2498H24.8407V46.9298C25.08 46.3885 25.4666 45.9252 25.9563 45.5929C26.446 45.2605 27.0193 45.0723 27.6107 45.0498C27.7664 45.0528 27.9211 45.0763 28.0707 45.1198V47.9998H27.0007V47.7998C26.9909 47.4635 26.9508 47.1288 26.8807 46.7998C26.8807 46.7198 26.7507 46.6798 26.4907 46.6798C26.1382 46.6873 25.7953 46.7959 25.5028 46.9927C25.2103 47.1895 24.9805 47.4662 24.8407 47.7898Z" fill="black"/>
<path d="M34.5 54.0598C34.036 54.2335 33.5454 54.3248 33.05 54.3298C32.6525 54.3588 32.2533 54.3083 31.8755 54.1812C31.4978 54.0542 31.1492 53.8531 30.85 53.5898C30.586 53.2875 30.3853 52.9352 30.2599 52.5538C30.1346 52.1725 30.087 51.7699 30.12 51.3698V46.0498H29V45.2498H30.08V43.7598L32.43 43.3398V45.2498H34.35V46.0498H32.47V51.4298C32.4214 51.964 32.5002 52.5021 32.7 52.9998C32.8095 53.1429 32.9555 53.2537 33.1227 53.3205C33.2899 53.3874 33.4721 53.4079 33.65 53.3798C33.9432 53.3741 34.2322 53.3094 34.5 53.1898V54.0598Z" fill="black"/>
<path d="M44.3495 54.2801L41.6395 44.5201C41.5178 44.0437 41.3469 43.5812 41.1295 43.1401C41.0395 43.0301 40.7795 42.9601 40.3395 42.9201H40.1895V42.1601H44.7895V42.9201H44.6395C44.0095 42.9201 43.6395 43.0101 43.6395 43.2101C43.7112 43.6587 43.8319 44.098 43.9995 44.5201L45.5495 50.0601L47.9795 42.3101H48.8795L51.4595 50.5301L53.3095 44.5301C53.3595 44.3901 53.4195 44.1601 53.5095 43.8401C53.5676 43.6408 53.6078 43.4367 53.6295 43.2301C53.6295 43.0101 53.3395 42.9001 52.7695 42.9001H52.6295V42.1401H55.6995V42.9001H55.5595H55.1995C54.9195 42.9001 54.7595 42.9001 54.6895 43.0401C54.49 43.516 54.3197 44.0036 54.1795 44.5001L51.1795 54.2301H50.4195L47.7395 46.0001L45.1495 54.3001L44.3495 54.2801Z" fill="black"/>
<path d="M60.8294 54.3302C60.2204 54.3631 59.6112 54.27 59.04 54.0566C58.4687 53.8433 57.9476 53.5142 57.5094 53.0902C56.7264 52.13 56.2988 50.9291 56.2988 49.6902C56.2988 48.4513 56.7264 47.2503 57.5094 46.2902C58.4285 45.4903 59.6059 45.0498 60.8244 45.0498C62.0428 45.0498 63.2202 45.4903 64.1394 46.2902C64.5575 46.7477 64.8799 47.2841 65.0877 47.868C65.2955 48.4519 65.3844 49.0714 65.3494 49.6902C65.3844 50.3089 65.2955 50.9285 65.0877 51.5123C64.8799 52.0962 64.5575 52.6327 64.1394 53.0902C63.7033 53.5145 63.1841 53.8437 62.6144 54.0572C62.0446 54.2706 61.4368 54.3636 60.8294 54.3302V54.3302ZM60.8294 53.4802C61.1388 53.4871 61.443 53.3999 61.7019 53.2303C61.9608 53.0607 62.1621 52.8166 62.2794 52.5302C62.6494 51.6312 62.8134 50.6608 62.7594 49.6902C62.8134 48.7195 62.6494 47.7491 62.2794 46.8502C62.1569 46.5673 61.9544 46.3264 61.6968 46.1572C61.4391 45.988 61.1376 45.8978 60.8294 45.8978C60.5211 45.8978 60.2196 45.988 59.962 46.1572C59.7043 46.3264 59.5018 46.5673 59.3794 46.8502C59.0093 47.7491 58.8453 48.7195 58.8994 49.6902C58.8453 50.6608 59.0093 51.6312 59.3794 52.5302C59.4978 52.8158 59.6994 53.0591 59.958 53.2286C60.2166 53.398 60.5202 53.4857 60.8294 53.4802Z" fill="black"/>
<path d="M69.8094 47.7898V51.7898C69.7695 52.2353 69.8345 52.684 69.9995 53.0998C70.1195 53.2398 70.4995 53.3298 71.1495 53.3698H71.2995V54.1198H66.1895V53.3698H66.3394C66.8794 53.3698 67.1994 53.2398 67.3394 53.0898C67.4905 52.6742 67.5452 52.2297 67.4995 51.7898V47.5998C67.544 47.1567 67.4894 46.7092 67.3394 46.2898C67.2394 46.1398 66.9194 46.0498 66.3394 46.0098H66.1895V45.2498H69.8094V46.9298C70.0488 46.3885 70.4353 45.9252 70.925 45.5929C71.4148 45.2605 71.988 45.0723 72.5795 45.0498C72.7352 45.0528 72.8899 45.0763 73.0395 45.1198V47.9998H71.9995V47.7998C71.9897 47.4635 71.9495 47.1288 71.8794 46.7998C71.8794 46.7198 71.7494 46.6798 71.4894 46.6798C71.1321 46.6828 70.7833 46.7892 70.4852 46.9862C70.1871 47.1832 69.9524 47.4623 69.8094 47.7898V47.7898Z" fill="black"/>
<path d="M79.47 54.0598C79.006 54.2335 78.5154 54.3248 78.02 54.3298C77.6225 54.3588 77.2233 54.3083 76.8455 54.1812C76.4678 54.0542 76.1192 53.8531 75.82 53.5898C75.556 53.2875 75.3553 52.9352 75.2299 52.5538C75.1046 52.1725 75.057 51.7699 75.09 51.3698V46.0498H74V45.2498H75.08V43.7598L77.43 43.3398V45.2498H79.35V46.0498H77.44V51.4298C77.3914 51.964 77.4702 52.5021 77.67 52.9998C77.7836 53.1514 77.9379 53.2675 78.1149 53.3348C78.2919 53.4021 78.4844 53.4177 78.67 53.3798C78.9632 53.3741 79.2522 53.3094 79.52 53.1898L79.47 54.0598Z" fill="black"/>
<path d="M83.8502 46.9301C84.1553 46.3594 84.5988 45.8746 85.1402 45.5201C85.6468 45.2045 86.2335 45.0414 86.8302 45.0501C87.1724 45.0312 87.5146 45.0877 87.8325 45.2155C88.1505 45.3434 88.4364 45.5396 88.6702 45.7901C89.1388 46.3708 89.3741 47.1053 89.3302 47.8501V51.7901C89.2844 52.23 89.3391 52.6745 89.4902 53.0901C89.6002 53.2401 89.9202 53.3301 90.4902 53.3701H90.6402V54.1201H85.7202V53.3701H85.8602C86.4002 53.3701 86.7202 53.2401 86.8602 53.0901C87.0113 52.6745 87.066 52.23 87.0202 51.7901V48.1201C87.0561 47.6827 86.984 47.2432 86.8102 46.8401C86.7059 46.7231 86.5755 46.6323 86.4296 46.575C86.2837 46.5176 86.1263 46.4954 85.9702 46.5101C85.5972 46.5168 85.2335 46.6276 84.9202 46.8301C84.5318 47.1033 84.1934 47.4416 83.9202 47.8301V51.8301C83.8797 52.2699 83.9343 52.7133 84.0802 53.1301C84.1902 53.2801 84.5102 53.3701 85.0802 53.4101H85.2302V54.1601H80.2402V53.4101H80.3902C80.9202 53.4101 81.2402 53.2801 81.3902 53.1301C81.5362 52.7133 81.5907 52.2699 81.5502 51.8301V43.7101C81.5891 43.2671 81.5346 42.8208 81.3902 42.4001C81.2836 42.2468 80.9502 42.1568 80.3902 42.1301H80.2402V41.3701H83.8502V46.9301Z" fill="black"/>
<path d="M1.81055 62.94V57.25H2.81055V62.94H1.81055Z" fill="#818386"/>
<path d="M6.30016 62.94L5.30016 60.4C5.16016 60.05 4.98016 59.58 4.87016 59.25C4.87016 59.6 4.87016 60.18 4.87016 60.54V62.94H3.91016V57.25H4.91016L5.91016 59.74C6.05016 60.09 6.25016 60.61 6.35016 60.93C6.35016 60.58 6.35016 59.93 6.35016 59.61V57.25H7.28016V62.94H6.30016Z" fill="black"/>
<path d="M9.58031 62.94H8.32031V57.25H9.61031C10.9703 57.25 11.7803 58.08 11.7803 60.09C11.7803 62.1 10.9203 62.94 9.58031 62.94ZM9.58031 58.24H9.34031V62H9.61031C10.5203 62 10.7403 61.2 10.7403 60.15C10.7403 59.1 10.5203 58.24 9.61031 58.24H9.58031Z" fill="black"/>
<path d="M12.6094 62.94V57.25H15.5394V58.25H13.6294V59.46H14.9094V60.46H13.6294V62H15.6294V63L12.6094 62.94Z" fill="black"/>
<path d="M17.9402 60.9002H17.4902V62.9002H16.4902V57.2502H18.0002C18.2445 57.2254 18.4912 57.2551 18.7226 57.3371C18.954 57.4192 19.1643 57.5515 19.3384 57.7247C19.5125 57.8978 19.646 58.1074 19.7293 58.3383C19.8126 58.5692 19.8437 58.8158 19.8202 59.0602C19.8321 59.3084 19.7913 59.5563 19.7005 59.7876C19.6097 60.019 19.4709 60.2284 19.2933 60.4022C19.1157 60.576 18.9033 60.7103 18.6701 60.7961C18.4369 60.8819 18.1881 60.9174 17.9402 60.9002V60.9002ZM17.9402 58.2402H17.4502V59.9102H18.0002C18.2059 59.8876 18.3961 59.79 18.5342 59.6359C18.6723 59.4818 18.7487 59.2821 18.7487 59.0752C18.7487 58.8682 18.6723 58.6686 18.5342 58.5145C18.3961 58.3604 18.2059 58.2627 18.0002 58.2402H17.9402Z" fill="black"/>
<path d="M20.5098 62.94V57.25H23.4298V58.25H21.5198V59.46H22.7998V60.46H21.5198V62H23.5198V63L20.5098 62.94Z" fill="black"/>
<path d="M26.7498 62.94L25.6998 60.4C25.5598 60.05 25.3798 59.58 25.2698 59.25C25.2698 59.6 25.2698 60.18 25.2698 60.54V62.94H24.3398V57.25H25.3398L26.3398 59.74C26.4798 60.09 26.6798 60.61 26.7798 60.93C26.7798 60.58 26.7798 59.93 26.7798 59.61V57.25H27.7098V62.94H26.7498Z" fill="black"/>
<path d="M29.9995 62.94H28.7695V57.25H30.0595C31.4195 57.25 32.2295 58.08 32.2295 60.09C32.2295 62.1 31.3695 62.94 29.9995 62.94ZM29.9995 58.24H29.7295V62H29.9995C30.9095 62 31.1295 61.2 31.1295 60.15C31.1295 59.1 30.9995 58.24 30.0595 58.24H29.9995Z" fill="black"/>
<path d="M33.0605 62.94V57.25H36.0005V58.25H34.0805V59.46H35.3605V60.46H34.0805V62H36.0805V63L33.0605 62.94Z" fill="black"/>
<path d="M39.3104 62.94L38.2604 60.4C38.1204 60.05 37.9404 59.58 37.8304 59.25C37.8304 59.6 37.8304 60.18 37.8304 60.54V62.94H36.9004V57.25H37.9004L38.9004 59.74C39.0304 60.09 39.2404 60.61 39.3404 60.93C39.3404 60.58 39.3404 59.93 39.3404 59.61V57.25H40.2704V62.94H39.3104Z" fill="black"/>
<path d="M43.2 58.2202V62.9402H42.2V58.2202H41V57.2202H44.38V58.2202H43.2Z" fill="black"/>
<path d="M48.3191 63.0001C47.9859 62.9951 47.6585 62.912 47.3632 62.7574C47.068 62.6028 46.8131 62.3811 46.6191 62.1101L47.3091 61.3701C47.4197 61.5436 47.5662 61.6914 47.7387 61.8035C47.9112 61.9157 48.1057 61.9895 48.3091 62.0201C48.3933 62.0294 48.4784 62.0198 48.5584 61.9921C48.6383 61.9644 48.7111 61.9192 48.7715 61.8598C48.8318 61.8005 48.8781 61.7284 48.9071 61.6489C48.9361 61.5694 48.9471 61.4844 48.9391 61.4001C48.9391 61.0701 48.7391 60.8101 48.0691 60.4701C47.2291 60.0301 46.7091 59.6001 46.7091 58.6601C46.706 58.4524 46.7458 58.2462 46.826 58.0545C46.9063 57.8628 47.0252 57.6897 47.1754 57.5461C47.3256 57.4025 47.5038 57.2914 47.6989 57.2198C47.8939 57.1483 48.1017 57.1177 48.3091 57.1301C48.6152 57.1213 48.9184 57.1911 49.1898 57.333C49.4612 57.4748 49.6916 57.6838 49.8591 57.9401L49.1891 58.6201C48.8491 58.2401 48.6691 58.1101 48.2791 58.1101C48.2107 58.1045 48.1418 58.1133 48.0769 58.1361C48.0121 58.1588 47.9527 58.1949 47.9028 58.2421C47.8528 58.2892 47.8133 58.3464 47.7868 58.4098C47.7603 58.4732 47.7475 58.5414 47.7491 58.6101C47.7491 58.9501 47.9391 59.1601 48.5591 59.4901C49.5591 60.0201 49.9791 60.4101 49.9791 61.3701C49.9863 61.5887 49.9481 61.8064 49.8668 62.0094C49.7856 62.2124 49.663 62.3964 49.507 62.5496C49.351 62.7028 49.1648 62.8219 48.9604 62.8995C48.7559 62.9771 48.5375 63.0113 48.3191 63.0001V63.0001Z" fill="black"/>
<path d="M52.3791 62.9999C51.1191 62.9999 50.5391 61.7099 50.5391 60.0699C50.5391 58.4299 51.1391 57.1299 52.3991 57.1299C53.3991 57.1299 53.7891 57.7399 54.0091 58.5699L53.0591 58.8799C52.9091 58.3599 52.7591 58.1399 52.3791 58.1399C51.8391 58.1399 51.5791 58.8399 51.5791 60.0599C51.5791 61.2799 51.8491 61.9999 52.3991 61.9999C52.7491 61.9999 52.9291 61.8099 53.1391 61.1899L54.0191 61.5599C53.7491 62.5099 53.2591 62.9999 52.3791 62.9999Z" fill="black"/>
<path d="M57.1105 62.94V60.48H55.8105V62.94H54.8105V57.25H55.8105V59.49H57.1105V57.25H58.1105V62.94H57.1105Z" fill="black"/>
<path d="M60.85 63.0002C59.53 63.0002 59 61.7402 59 60.1002C59 58.4602 59.58 57.1602 60.91 57.1602C62.24 57.1602 62.79 58.4502 62.79 60.0902C62.79 61.7302 62.17 63.0002 60.85 63.0002ZM60.85 58.1402C60.24 58.1402 60.01 58.8402 60.01 60.0602C60.01 61.2802 60.26 61.9802 60.87 61.9802C61.48 61.9802 61.71 61.2802 61.71 60.0702C61.71 58.8602 61.45 58.1702 60.85 58.1702V58.1402Z" fill="black"/>
<path d="M65.2709 62.9999C63.9409 62.9999 63.3809 61.7099 63.3809 60.0699C63.3809 58.4299 63.9609 57.1299 65.2909 57.1299C66.6209 57.1299 67.1709 58.4199 67.1709 60.0599C67.1709 61.6999 66.5909 62.9999 65.2709 62.9999ZM65.2709 58.1399C64.6609 58.1399 64.4209 58.8399 64.4209 60.0599C64.4209 61.2799 64.6809 61.9799 65.2909 61.9799C65.9009 61.9799 66.1209 61.2799 66.1209 60.0699C66.1209 58.8599 65.8709 58.1699 65.2709 58.1699V58.1399Z" fill="black"/>
<path d="M68 62.94V57.25H69V62H70.8V63L68 62.94Z" fill="black"/>
<path d="M74.7094 62.94H73.4395V57.25H74.7295C76.0995 57.25 76.8995 58.08 76.8995 60.09C76.8995 62.1 75.9994 62.94 74.7094 62.94ZM74.7094 58.24H74.4395V62H74.7094C75.6194 62 75.8394 61.2 75.8394 60.15C75.8394 59.1 75.6395 58.24 74.7295 58.24H74.7094Z" fill="black"/>
<path d="M77.7793 62.94V57.25H78.7793V62.94H77.7793Z" fill="black"/>
<path d="M81.2508 63.0001C80.9175 62.9951 80.5901 62.912 80.2949 62.7574C79.9996 62.6028 79.7448 62.3811 79.5508 62.1101L80.2408 61.3701C80.3556 61.5505 80.5096 61.7027 80.6914 61.8153C80.8732 61.9278 81.0781 61.9978 81.2908 62.0201C81.3749 62.0294 81.46 62.0198 81.54 61.9921C81.62 61.9644 81.6928 61.9192 81.7531 61.8598C81.8134 61.8005 81.8598 61.7284 81.8888 61.6489C81.9178 61.5694 81.9287 61.4844 81.9208 61.4001C81.9208 61.0701 81.7208 60.8101 81.0508 60.4701C80.2008 60.0301 79.6908 59.6001 79.6908 58.6601C79.6877 58.4524 79.7275 58.2462 79.8077 58.0545C79.8879 57.8628 80.0068 57.6897 80.157 57.5461C80.3072 57.4025 80.4854 57.2914 80.6805 57.2198C80.8756 57.1483 81.0833 57.1177 81.2908 57.1301C81.5967 57.1223 81.8996 57.1925 82.1708 57.3342C82.442 57.476 82.6726 57.6845 82.8408 57.9401L82.1608 58.6201C81.8308 58.2401 81.6508 58.1101 81.2608 58.1101C81.1918 58.1046 81.1225 58.1134 81.0571 58.1361C80.9918 58.1587 80.9318 58.1947 80.8811 58.2417C80.8303 58.2886 80.7899 58.3457 80.7623 58.4091C80.7347 58.4725 80.7206 58.541 80.7208 58.6101C80.7208 58.9501 80.9208 59.1601 81.5408 59.4901C82.5408 60.0201 82.9508 60.4101 82.9508 61.3701C82.9601 61.5927 82.9219 61.8147 82.8388 62.0214C82.7557 62.2281 82.6295 62.4147 82.4687 62.5689C82.3079 62.7231 82.1162 62.8413 81.9062 62.9156C81.6962 62.99 81.4728 63.0188 81.2508 63.0001V63.0001Z" fill="black"/>
<path d="M85.44 58.2202V62.9402H84.44V58.2202H83.25V57.2202H86.62V58.2202H85.44Z" fill="black"/>
<path d="M89.5794 62.9402L88.6894 60.7802H88.3594V62.9402H87.3594V57.2502H88.8694C89.1077 57.2244 89.3489 57.2515 89.5755 57.3296C89.8022 57.4077 90.0089 57.5349 90.1808 57.702C90.3527 57.8691 90.4856 58.0721 90.57 58.2965C90.6545 58.5209 90.6884 58.7612 90.6694 59.0002C90.6816 59.3299 90.5922 59.6553 90.4134 59.9326C90.2345 60.2098 89.9748 60.4254 89.6694 60.5502L90.6694 62.9202L89.5794 62.9402ZM88.7994 58.2402H88.3594V59.8302H88.8594C88.9666 59.8451 89.0759 59.835 89.1785 59.8006C89.2812 59.7662 89.3745 59.7084 89.4511 59.6318C89.5276 59.5553 89.5854 59.462 89.6198 59.3593C89.6542 59.2567 89.6643 59.1474 89.6494 59.0402C89.6494 58.5202 89.4094 58.2402 88.7994 58.2402V58.2402Z" fill="black"/>
<path d="M91.5098 62.94V57.25H92.5098V62.94H91.5098Z" fill="black"/>
<path d="M95.2502 62.9999C93.9902 62.9999 93.4102 61.7099 93.4102 60.0699C93.4102 58.4299 94.0101 57.1299 95.2701 57.1299C96.2701 57.1299 96.6601 57.7399 96.8801 58.5699L95.9302 58.8799C95.7802 58.3599 95.6302 58.1399 95.2502 58.1399C94.7102 58.1399 94.4501 58.8399 94.4501 60.0599C94.4501 61.2799 94.7201 61.9799 95.2701 61.9799C95.6201 61.9799 95.8002 61.7899 96.0102 61.1699L96.8902 61.5399C96.6202 62.5099 96.1202 62.9999 95.2502 62.9999Z" fill="black"/>
<path d="M99.4908 58.2202V62.9402H98.4908V58.2202H97.3008V57.2202H100.671V58.2202H99.4908Z" fill="black"/>
<path d="M124.801 28.4902V70.3202" stroke="black" stroke-width="1.37" stroke-linecap="round" stroke-linejoin="round"/>
<path d="M151.74 33.2099V45.2099L153.01 45.4699C153.18 45.4699 153.26 45.6399 153.26 45.8499V46.7599H148.15V45.8499C148.146 45.7529 148.179 45.6581 148.242 45.5842C148.305 45.5102 148.393 45.4623 148.49 45.4499L149.67 45.2099V39.9199H141.53V45.2499C142.53 45.4699 143.05 45.6799 143.05 45.8899V46.7999H138V45.8899C137.991 45.7949 138.02 45.7002 138.079 45.6256C138.139 45.5511 138.225 45.5025 138.32 45.4899L139.52 45.2499V33.2499C138.85 33.1199 138.43 33.0399 138.26 32.9899C138.176 32.9708 138.104 32.921 138.055 32.8506C138.007 32.7803 137.987 32.6943 138 32.6099V31.7299H143.09V32.6099C143.09 32.8299 143.03 32.9499 142.88 32.9899C142.73 33.0299 142.31 33.1199 141.59 33.2499V38.4599H149.73V33.2099C149.06 33.0799 148.64 32.9999 148.47 32.9499C148.3 32.8999 148.22 32.7899 148.22 32.5699V31.6899H153.32V32.5699C153.334 32.6694 153.308 32.7704 153.248 32.851C153.188 32.9315 153.099 32.9851 153 32.9999L151.74 33.2099Z" fill="white"/>
<path d="M155.9 45.6602C155.905 45.4858 155.938 45.3133 156 45.1502C156.06 44.9905 156.156 44.8468 156.28 44.7302C156.403 44.6081 156.545 44.5068 156.7 44.4302C156.862 44.3649 157.037 44.3375 157.21 44.3502C157.381 44.3376 157.552 44.365 157.71 44.4302C157.861 44.5044 157.997 44.6062 158.11 44.7302C158.238 44.8439 158.335 44.9886 158.39 45.1502C158.446 45.3143 158.473 45.4869 158.47 45.6602C158.475 45.8304 158.448 45.9999 158.39 46.1602C158.335 46.3218 158.238 46.4664 158.11 46.5802C158 46.6979 157.863 46.7871 157.71 46.8402C157.551 46.9022 157.382 46.936 157.21 46.9402C157.036 46.936 156.864 46.9022 156.7 46.8402C156.543 46.7853 156.4 46.6965 156.28 46.5802C156.156 46.4636 156.06 46.3198 156 46.1602C155.937 45.9907 155.903 45.8113 155.9 45.6302V45.6602Z" fill="white"/>
<path d="M172.001 31.6899V35.3399H171.001C170.948 35.3469 170.893 35.343 170.842 35.3285C170.79 35.314 170.741 35.2892 170.699 35.2556C170.657 35.222 170.623 35.1803 170.597 35.1329C170.572 35.0855 170.556 35.0335 170.551 34.9799C170.551 34.9199 170.491 34.3699 170.411 33.3599H164.751V38.3599H170.321V39.9999H164.751V45.1699H170.411C170.491 44.2399 170.531 43.7099 170.531 43.6499C170.581 43.3999 170.741 43.3099 171.001 43.3099H172.001V46.7999H161.201V45.9099C161.192 45.8164 161.219 45.7229 161.277 45.6487C161.334 45.5744 161.418 45.5248 161.511 45.5099L162.721 45.2799V33.2299C162.041 33.0999 161.641 33.0199 161.511 32.9799C161.417 32.9628 161.334 32.9112 161.276 32.8353C161.219 32.7594 161.192 32.6647 161.201 32.5699V31.6899H172.001Z" fill="white"/>
<path d="M174.85 45.6602C174.854 45.4858 174.888 45.3133 174.95 45.1502C175.009 44.9905 175.105 44.8468 175.23 44.7302C175.351 44.6059 175.493 44.5043 175.65 44.4302C175.811 44.3649 175.986 44.3375 176.16 44.3502C176.33 44.3383 176.501 44.3657 176.66 44.4302C176.81 44.5044 176.946 44.6062 177.06 44.7302C177.184 44.8468 177.28 44.9905 177.34 45.1502C177.395 45.3143 177.422 45.4869 177.42 45.6602C177.424 45.8304 177.397 45.9999 177.34 46.1602C177.28 46.3198 177.184 46.4636 177.06 46.5802C176.949 46.6979 176.812 46.7871 176.66 46.8402C176.339 46.9703 175.98 46.9703 175.66 46.8402C175.501 46.7875 175.357 46.6984 175.24 46.5802C175.115 46.4636 175.019 46.3198 174.96 46.1602C174.896 45.9907 174.862 45.8113 174.86 45.6302L174.85 45.6602Z" fill="white"/>
<path d="M190.741 46.8H180.151V45.89C180.148 45.7978 180.178 45.7076 180.234 45.6347C180.291 45.5618 180.371 45.5107 180.461 45.49C180.651 45.44 181.661 45.25 181.661 45.25V33.25L180.461 33.02C180.371 32.9956 180.292 32.9421 180.235 32.8679C180.179 32.7937 180.149 32.703 180.151 32.61V31.73H185.211V32.61C185.209 32.7039 185.177 32.7948 185.12 32.8688C185.062 32.9429 184.981 32.996 184.891 33.02L183.691 33.25V45.07H189.131C189.131 44.47 189.241 43.95 189.261 43.86C189.281 43.7585 189.336 43.6673 189.416 43.6017C189.497 43.5361 189.597 43.5002 189.701 43.5H190.701L190.741 46.8Z" fill="white"/>
<path d="M194 45.6602C194.004 45.4858 194.038 45.3133 194.1 45.1502C194.16 44.9905 194.256 44.8468 194.38 44.7302C194.501 44.6059 194.643 44.5043 194.8 44.4302C194.962 44.3649 195.136 44.3375 195.31 44.3502C195.481 44.3383 195.652 44.3657 195.81 44.4302C195.961 44.5044 196.097 44.6062 196.21 44.7302C196.334 44.8468 196.43 44.9905 196.49 45.1502C196.546 45.3143 196.573 45.4869 196.57 45.6602C196.574 45.8304 196.547 45.9999 196.49 46.1602C196.43 46.3198 196.334 46.4636 196.21 46.5802C196.1 46.6979 195.962 46.7871 195.81 46.8402C195.489 46.9703 195.131 46.9703 194.81 46.8402C194.652 46.7875 194.508 46.6984 194.39 46.5802C194.266 46.4636 194.17 46.3198 194.11 46.1602C194.046 45.9907 194.012 45.8113 194.01 45.6302L194 45.6602Z" fill="white"/>
<path d="M207.49 32.0001C208.442 32.2482 209.275 32.8228 209.846 33.6235C210.416 34.4242 210.687 35.4 210.61 36.3801C210.644 37.021 210.533 37.6612 210.286 38.2534C210.038 38.8455 209.66 39.3741 209.18 39.8001C208.001 40.7483 206.511 41.2257 205 41.1401H202.85V45.2501C202.97 45.2501 203.4 45.3801 204.07 45.5101C204.162 45.5249 204.245 45.5749 204.301 45.6495C204.357 45.7241 204.382 45.8175 204.37 45.9101V46.8001H199.3V45.9101C199.292 45.815 199.32 45.7203 199.38 45.6458C199.44 45.5712 199.526 45.5226 199.62 45.5101L200.82 45.2801V33.2301C200.15 33.1001 199.75 33.0201 199.62 32.9801C199.525 32.9652 199.439 32.9146 199.379 32.8384C199.32 32.7622 199.292 32.6663 199.3 32.5701V31.6901H205C205.841 31.6766 206.68 31.7844 207.49 32.0101V32.0001ZM208.57 36.3401C208.593 35.9246 208.525 35.5092 208.371 35.1225C208.217 34.7358 207.982 34.387 207.68 34.1001C206.919 33.5069 205.962 33.2214 205 33.3001H202.85V39.5001H205C205.956 39.5605 206.899 39.2568 207.64 38.6501C207.966 38.3642 208.225 38.0097 208.398 37.6121C208.571 37.2144 208.654 36.7835 208.64 36.3501L208.57 36.3401Z" fill="white"/>
<path d="M210.42 45.66C210.428 45.485 210.465 45.3126 210.53 45.15C210.586 44.991 210.679 44.8472 210.8 44.73C210.926 44.6078 211.072 44.5066 211.23 44.43C211.388 44.3641 211.559 44.3366 211.73 44.35C211.904 44.3373 212.078 44.3646 212.24 44.43C212.389 44.5069 212.524 44.6083 212.64 44.73C212.764 44.8449 212.857 44.9894 212.91 45.15C212.974 45.3123 213.004 45.4857 213 45.66C213.006 45.8311 212.975 46.0016 212.91 46.16C212.857 46.3205 212.764 46.465 212.64 46.58C212.528 46.6956 212.391 46.7845 212.24 46.84C212.077 46.9019 211.904 46.9358 211.73 46.94C211.559 46.9366 211.389 46.9028 211.23 46.84C211.07 46.7852 210.923 46.6965 210.8 46.58C210.679 46.4627 210.586 46.319 210.53 46.16C210.463 45.991 210.426 45.8117 210.42 45.63V45.66Z" fill="white"/>
<path d="M229.5 32.0001C230.452 32.2482 231.285 32.8228 231.856 33.6235C232.426 34.4242 232.697 35.4 232.62 36.3801C232.654 37.021 232.543 37.6612 232.296 38.2534C232.048 38.8455 231.67 39.3741 231.19 39.8001C230.007 40.7489 228.515 41.2262 227 41.1401H224.85V45.2501C224.97 45.2501 225.4 45.3801 226.07 45.5101C226.162 45.5249 226.245 45.5749 226.301 45.6495C226.357 45.7241 226.382 45.8175 226.37 45.9101V46.8001H221.3V45.9101C221.292 45.815 221.32 45.7203 221.38 45.6458C221.44 45.5712 221.526 45.5226 221.62 45.5101L222.82 45.2801V33.2301C222.15 33.1001 221.75 33.0201 221.62 32.9801C221.525 32.9652 221.439 32.9146 221.379 32.8384C221.32 32.7622 221.292 32.6663 221.3 32.5701V31.6901H227C227.841 31.6766 228.68 31.7844 229.49 32.0101L229.5 32.0001ZM230.57 36.3401C230.595 35.9253 230.528 35.5101 230.377 35.1234C230.225 34.7366 229.99 34.3875 229.69 34.1001C228.929 33.5069 227.972 33.2214 227.01 33.3001H224.86V39.5001H227C227.956 39.5605 228.899 39.2568 229.64 38.6501C229.957 38.3595 230.207 38.0029 230.371 37.6056C230.535 37.2082 230.61 36.7796 230.59 36.3501L230.57 36.3401Z" fill="white"/>
<path d="M238.15 38.2901C238.392 37.6146 238.831 37.0271 239.41 36.603C239.99 36.1789 240.682 35.9376 241.4 35.9101C241.909 35.9011 242.41 36.0326 242.85 36.2901L242.62 37.7001C242.62 37.8701 242.47 37.9801 242.35 37.9801C242.176 37.9644 242.004 37.9274 241.84 37.8701C241.559 37.7968 241.269 37.7632 240.98 37.7701C239.75 37.7701 238.82 38.5301 238.23 40.0001V45.2801L239.44 45.5101C239.532 45.5249 239.616 45.5745 239.674 45.6488C239.731 45.7231 239.758 45.8165 239.75 45.9101V46.8001H234.84V45.9101C234.831 45.8165 234.858 45.7231 234.915 45.6488C234.973 45.5745 235.057 45.5249 235.15 45.5101L236.36 45.2801V37.6601C235.68 37.5301 235.28 37.4501 235.15 37.4101C235.057 37.3953 234.973 37.3457 234.915 37.2714C234.858 37.1971 234.831 37.1037 234.84 37.0101V36.1201H237.43C237.64 36.1201 237.75 36.1201 237.83 36.2301C237.927 36.3424 237.986 36.4823 238 36.6301L238.13 38.2901H238.15Z" fill="white"/>
<path d="M251.59 36.33C252.214 36.5731 252.776 36.9538 253.233 37.4437C253.69 37.9337 254.031 38.5203 254.23 39.16C254.71 40.6387 254.71 42.2313 254.23 43.71C254.031 44.3497 253.69 44.9364 253.233 45.4263C252.776 45.9162 252.214 46.2969 251.59 46.54C250.23 47.051 248.73 47.051 247.37 46.54C246.755 46.2973 246.202 45.9217 245.75 45.44C245.303 44.9365 244.963 44.3481 244.75 43.71C244.506 42.979 244.394 42.2103 244.42 41.44C244.393 40.6664 244.505 39.8944 244.75 39.16C244.963 38.5219 245.303 37.9335 245.75 37.43C246.202 36.9484 246.755 36.5727 247.37 36.33C248.73 35.819 250.23 35.819 251.59 36.33V36.33ZM251.84 44.43C252.411 43.5374 252.687 42.4881 252.63 41.43C252.686 40.372 252.41 39.3229 251.84 38.43C251.561 38.0802 251.199 37.8055 250.787 37.6309C250.374 37.4563 249.925 37.3872 249.48 37.43C249.004 37.4148 248.53 37.5 248.09 37.68C247.695 37.8588 247.351 38.1339 247.09 38.48C246.805 38.8566 246.604 39.2896 246.5 39.75C246.359 40.3158 246.288 40.8969 246.29 41.48C246.288 42.05 246.359 42.6178 246.5 43.17C246.606 43.6268 246.807 44.0561 247.09 44.43C247.35 44.7673 247.695 45.0295 248.09 45.19C248.526 45.388 249 45.4903 249.48 45.49C249.931 45.5269 250.384 45.449 250.796 45.2637C251.209 45.0783 251.568 44.7915 251.84 44.43V44.43Z" fill="white"/>
<path d="M260.939 35.9999C261.374 35.9919 261.808 36.0424 262.229 36.1499C262.614 36.2473 262.981 36.4024 263.319 36.6099H266.229V37.3099C266.229 37.5399 266.089 37.6899 265.789 37.7499L264.589 37.9199C264.8 38.3796 264.909 38.8793 264.909 39.3849C264.909 39.8905 264.8 40.3901 264.589 40.8499C264.402 41.2677 264.121 41.6372 263.769 41.9299C263.394 42.2457 262.963 42.4898 262.499 42.6499C261.983 42.8172 261.442 42.895 260.899 42.8799C260.422 42.8853 259.947 42.8213 259.489 42.6899C259.293 42.8113 259.12 42.9671 258.979 43.1499C258.867 43.2803 258.806 43.4476 258.809 43.6199C258.8 43.7336 258.823 43.8476 258.876 43.9485C258.929 44.0495 259.01 44.1332 259.109 44.1899C259.361 44.3346 259.64 44.4265 259.929 44.4599C260.314 44.5129 260.701 44.5429 261.089 44.5499C261.509 44.5499 261.949 44.5499 262.399 44.6299C262.835 44.654 263.269 44.7041 263.699 44.7799C264.105 44.8519 264.499 44.9798 264.869 45.1599C265.198 45.3372 265.479 45.591 265.689 45.8999C265.906 46.2536 266.007 46.666 265.979 47.0799C265.984 47.5504 265.871 48.0146 265.649 48.4299C265.392 48.8701 265.052 49.2571 264.649 49.5699C264.182 49.9287 263.653 50.1998 263.089 50.3699C262.406 50.5793 261.694 50.6772 260.979 50.6599C260.282 50.6777 259.586 50.6003 258.909 50.4299C258.397 50.2935 257.908 50.0812 257.459 49.7999C257.101 49.5699 256.803 49.258 256.589 48.8899C256.409 48.5865 256.31 48.2424 256.299 47.8899C256.289 47.391 256.472 46.9075 256.809 46.5399C257.188 46.1285 257.667 45.822 258.199 45.6499C257.914 45.5257 257.666 45.3292 257.479 45.0799C257.282 44.7851 257.187 44.4338 257.209 44.0799C257.216 43.9238 257.243 43.7692 257.289 43.6199C257.34 43.4356 257.424 43.2625 257.539 43.1099C257.674 42.942 257.824 42.7879 257.989 42.6499C258.173 42.5038 258.37 42.3765 258.579 42.2699C258.07 41.9879 257.64 41.5821 257.329 41.0899C257.03 40.5704 256.878 39.9792 256.889 39.3799C256.876 38.8906 256.975 38.4048 257.179 37.9599C257.385 37.5478 257.674 37.1833 258.029 36.8899C258.418 36.5768 258.863 36.3394 259.339 36.1899C259.863 36.0248 260.41 35.947 260.959 35.9599L260.939 35.9999ZM264.289 47.4599C264.304 47.2305 264.229 47.0044 264.079 46.8299C263.914 46.6504 263.703 46.5191 263.469 46.4499C263.191 46.3543 262.902 46.2906 262.609 46.2599C262.269 46.2599 261.929 46.1699 261.549 46.1499H260.429C260.049 46.1499 259.689 46.0599 259.359 46.0199C258.983 46.1844 258.643 46.4224 258.359 46.7199C258.233 46.8529 258.134 47.0098 258.068 47.1815C258.003 47.3533 257.973 47.5363 257.979 47.7199C257.976 47.957 258.042 48.19 258.169 48.3899C258.307 48.612 258.5 48.7946 258.729 48.9199C259.025 49.0898 259.345 49.2114 259.679 49.2799C260.57 49.4665 261.489 49.4665 262.379 49.2799C262.732 49.2024 263.07 49.0672 263.379 48.8799C263.63 48.7314 263.845 48.53 264.009 48.2899C264.161 48.0656 264.241 47.8006 264.239 47.5299L264.289 47.4599ZM260.999 41.6499C261.34 41.6487 261.678 41.5912 261.999 41.4799C262.273 41.3841 262.524 41.2345 262.739 41.0399C262.944 40.8482 263.095 40.6071 263.179 40.3399C263.278 40.0605 263.329 39.7663 263.329 39.4699C263.342 39.1817 263.294 38.894 263.189 38.6254C263.084 38.3568 262.924 38.113 262.719 37.9099C262.218 37.5396 261.612 37.3398 260.989 37.3398C260.366 37.3398 259.76 37.5396 259.259 37.9099C259.058 38.1144 258.901 38.3588 258.799 38.6275C258.698 38.8961 258.653 39.1831 258.669 39.4699C258.666 39.7684 258.724 40.0646 258.839 40.3399C258.932 40.5944 259.082 40.8238 259.279 41.0099C259.493 41.2076 259.745 41.3606 260.019 41.4599C260.341 41.5678 260.68 41.6186 261.019 41.6099L260.999 41.6499Z" fill="white"/>
<path d="M271.89 38.2901C272.133 37.6146 272.572 37.0271 273.151 36.603C273.73 36.1789 274.423 35.9376 275.14 35.9101C275.649 35.9011 276.151 36.0326 276.59 36.2901L276.36 37.7001C276.36 37.8701 276.21 37.9801 276.09 37.9801C275.916 37.9644 275.745 37.9274 275.58 37.8701C275.299 37.7968 275.01 37.7632 274.72 37.7701C273.49 37.7701 272.57 38.5301 271.97 40.0001V45.2801L273.18 45.5101C273.273 45.5249 273.356 45.5745 273.414 45.6488C273.471 45.7231 273.499 45.8165 273.49 45.9101V46.8001H268.58V45.9101C268.571 45.8165 268.598 45.7231 268.656 45.6488C268.713 45.5745 268.797 45.5249 268.89 45.5101L270.1 45.2801V37.6601C269.42 37.5301 269.02 37.4501 268.89 37.4101C268.797 37.3953 268.713 37.3457 268.656 37.2714C268.598 37.1971 268.571 37.1037 268.58 37.0101V36.1201H271.17C271.38 36.1201 271.49 36.1201 271.57 36.2301C271.667 36.3424 271.726 36.4823 271.74 36.6301L271.87 38.2901H271.89Z" fill="white"/>
<path d="M287.589 45.4398C287.679 45.4641 287.758 45.5176 287.814 45.5918C287.87 45.666 287.9 45.7568 287.899 45.8498V46.7498H285.709C285.559 46.7472 285.411 46.7202 285.269 46.6698C285.139 46.6698 285.099 46.4998 285.059 46.3298L284.849 45.3298L283.999 45.9998C283.746 46.2106 283.463 46.3825 283.159 46.5098C282.858 46.6403 282.547 46.7473 282.229 46.8298C281.854 46.9066 281.472 46.9402 281.089 46.9298C280.701 46.9351 280.315 46.8707 279.949 46.7398C279.601 46.6407 279.278 46.4705 278.999 46.2398C278.707 45.9644 278.478 45.6283 278.33 45.2551C278.181 44.882 278.116 44.4808 278.139 44.0798C278.135 43.6505 278.249 43.2283 278.469 42.8598C278.768 42.4434 279.158 42.1013 279.609 41.8598C280.233 41.5055 280.908 41.2491 281.609 41.0998C282.623 40.894 283.655 40.8001 284.689 40.8198V39.9998C284.737 39.3213 284.542 38.6479 284.139 38.0998C283.94 37.8815 283.695 37.71 283.422 37.5976C283.149 37.4852 282.854 37.4347 282.559 37.4498C282.164 37.436 281.77 37.5006 281.399 37.6398C281.119 37.7364 280.851 37.8639 280.599 38.0198C280.385 38.1343 280.178 38.2612 279.979 38.3998C279.844 38.51 279.674 38.57 279.499 38.5698C279.38 38.5732 279.262 38.542 279.159 38.4798C279.073 38.4114 279.002 38.3263 278.949 38.2298L278.609 37.6398C279.163 37.1079 279.806 36.6779 280.509 36.3698C281.233 36.0764 282.009 35.9335 282.789 35.9498C283.337 35.932 283.883 36.0309 284.389 36.2398C284.827 36.429 285.221 36.7045 285.549 37.0498C285.88 37.4113 286.125 37.8417 286.269 38.3098C286.434 38.8438 286.512 39.401 286.499 39.9598V45.2898C286.799 45.3598 287.429 45.4798 287.559 45.5298L287.589 45.4398ZM284.679 41.9998C283.943 41.9899 283.207 42.0401 282.479 42.1498C281.973 42.242 281.48 42.393 281.009 42.5998C280.673 42.726 280.378 42.9443 280.159 43.2298C279.993 43.4632 279.906 43.7433 279.909 44.0298C279.906 44.2778 279.958 44.5235 280.059 44.7498C280.133 44.9507 280.265 45.1249 280.439 45.2498C280.6 45.3762 280.783 45.4712 280.979 45.5298C281.207 45.5945 281.443 45.6281 281.679 45.6298C281.979 45.6299 282.277 45.5963 282.569 45.5298C282.839 45.4649 283.1 45.371 283.349 45.2498C283.596 45.1235 283.828 44.9691 284.039 44.7898C284.262 44.6041 284.476 44.4071 284.679 44.1998V41.9998Z" fill="white"/>
<path d="M293.499 37.6202C293.836 37.1292 294.283 36.723 294.803 36.4333C295.324 36.1435 295.904 35.9782 296.499 35.9502C297.148 35.9251 297.782 36.1426 298.279 36.5602C298.751 37.0053 299.096 37.5678 299.279 38.1902C299.529 37.481 300.022 36.8827 300.669 36.5002C301.225 36.1765 301.856 36.0041 302.499 36.0002C303.062 35.9912 303.621 36.0861 304.149 36.2802C304.588 36.4424 304.979 36.7103 305.289 37.0602C305.963 37.909 306.295 38.9792 306.219 40.0602V45.3402C306.889 45.4602 307.309 45.5502 307.439 45.5902C307.531 45.6003 307.616 45.6454 307.675 45.7161C307.735 45.7869 307.765 45.8779 307.759 45.9702V46.9002H304.359V40.0002C304.415 39.3208 304.219 38.6447 303.809 38.1002C303.608 37.8792 303.36 37.7061 303.083 37.5936C302.806 37.4811 302.507 37.4321 302.209 37.4502C301.914 37.4418 301.62 37.4933 301.345 37.6016C301.07 37.7099 300.819 37.8727 300.609 38.0802C300.369 38.3326 300.184 38.6314 300.063 38.958C299.943 39.2847 299.89 39.6325 299.909 39.9802V45.2602L301.109 45.5102C301.201 45.5203 301.286 45.5654 301.345 45.6361C301.405 45.7069 301.435 45.7979 301.429 45.8902V46.8002H297.999V40.0002C297.999 38.3102 297.329 37.4702 295.999 37.4702C295.518 37.4932 295.05 37.6315 294.634 37.8734C294.218 38.1154 293.867 38.4538 293.609 38.8602V45.2802L294.179 45.3802C294.39 45.4365 294.603 45.4799 294.819 45.5102C294.912 45.525 294.996 45.5746 295.053 45.6489C295.111 45.7232 295.138 45.8166 295.129 45.9102V46.8002H290.219V45.9102C290.205 45.8187 290.227 45.7253 290.281 45.6503C290.336 45.5753 290.418 45.5249 290.509 45.5102L291.739 45.2802V37.6602C291.059 37.5302 290.639 37.4502 290.509 37.4102C290.419 37.3931 290.339 37.3421 290.285 37.2678C290.231 37.1934 290.207 37.1013 290.219 37.0102V36.1202H292.829C292.945 36.1145 293.059 36.1493 293.152 36.2186C293.245 36.288 293.311 36.3875 293.339 36.5002L293.489 37.6002L293.499 37.6202Z" fill="white"/>
<path d="M141.8 67.5902H140.63V63.2902H139.15V67.5902H138V58.4902H139.17V62.1402H140.65V58.4902H141.82L141.8 67.5902Z" fill="black"/>
<path d="M147.301 62.9998C147.301 65.9998 146.951 67.7198 145.301 67.7198C143.651 67.7198 143.301 66.0298 143.301 63.0598C143.301 60.0898 143.651 58.3398 145.301 58.3398C146.951 58.3398 147.301 60.0998 147.301 62.9998ZM146.101 63.0698C146.101 60.2598 145.861 59.5098 145.301 59.5098C144.741 59.5098 144.541 60.2498 144.541 62.9898C144.541 65.7298 144.771 66.5498 145.341 66.5498C145.911 66.5498 146.101 65.8198 146.101 63.0798V63.0698Z" fill="black"/>
<path d="M153.58 67.5902H152.51V64.8102C152.51 63.6502 152.56 62.5202 152.56 61.4802C152.44 62.1802 152.15 63.6602 151.95 64.4802L151.2 67.8202L150.46 64.4802C150.27 63.6802 149.96 62.1002 149.85 61.4802C149.85 62.4002 149.9 63.7002 149.9 64.8102V67.5902H148.83V58.4902H150.09L150.79 61.8602C150.97 62.6557 151.107 63.4602 151.2 64.2702C151.29 63.4537 151.424 62.6426 151.6 61.8402L152.31 58.4902H153.58V67.5902Z" fill="black"/>
<path d="M158.679 67.5902H155.359V58.4902H158.529V59.6402H156.529V62.2202H158.069V63.3602H156.529V66.4402H158.679V67.5902Z" fill="black"/>
<path d="M163 67.5902H160V58.4902H161.17V66.4402H163V67.5902Z" fill="black"/>
<path d="M167.67 67.5902H164.35V58.4902H167.52V59.6402H165.52V62.2202H167.06V63.3602H165.52V66.4402H167.67V67.5902Z" fill="black"/>
<path d="M172.329 65.5899C172.329 66.8099 171.659 67.7299 170.529 67.7299C169.399 67.7299 168.769 66.9399 168.619 65.3799L169.749 65.1999C169.869 66.1999 170.139 66.5199 170.529 66.5199C170.919 66.5199 171.159 66.2499 171.159 65.6899C171.159 64.8299 170.869 64.3599 169.969 63.2599C169.23 62.4797 168.778 61.471 168.689 60.3999C168.689 59.2599 169.269 58.3999 170.429 58.3999C171.589 58.3999 172.089 59.2699 172.259 60.4699L171.139 60.7099C171.009 59.9499 170.819 59.5799 170.439 59.5799C170.059 59.5799 169.869 59.8399 169.869 60.4299C169.869 61.0199 170.119 61.4999 170.869 62.4299C171.704 63.2847 172.219 64.4003 172.329 65.5899Z" fill="black"/>
<path d="M177.069 65.5899C177.069 66.8099 176.409 67.7299 175.279 67.7299C174.149 67.7299 173.509 66.9399 173.369 65.3799L174.499 65.1999C174.609 66.1999 174.889 66.5199 175.279 66.5199C175.669 66.5199 175.899 66.2499 175.899 65.6899C175.899 64.8299 175.609 64.3599 174.719 63.2599C173.974 62.4829 173.518 61.4731 173.429 60.3999C173.429 59.2599 174.019 58.3999 175.169 58.3999C176.319 58.3999 176.829 59.2699 176.999 60.4699L175.889 60.7099C175.759 59.9499 175.559 59.5799 175.179 59.5799C174.799 59.5799 174.609 59.8399 174.609 60.4299C174.609 61.0199 174.859 61.4999 175.609 62.4299C176.444 63.2847 176.959 64.4003 177.069 65.5899Z" fill="black"/>
<path d="M184.619 67.5902H181.289V58.4902H184.459V59.6402H182.459V62.2202H183.999V63.3602H182.449V66.4402H184.609L184.619 67.5902Z" fill="black"/>
<path d="M189.72 62.9999C189.72 66.1199 189.01 67.6199 187.41 67.6199H186V58.5199H187.57C189.26 58.4899 189.72 60.1599 189.72 62.9999ZM188.53 62.9999C188.53 60.4099 188.19 59.6499 187.48 59.6499H187.14V66.4999H187.45C188.13 66.4699 188.53 65.6999 188.53 62.9999Z" fill="black"/>
<path d="M195 65.3902C195 66.8902 194.38 67.7302 193.09 67.7302C191.8 67.7302 191.18 66.8602 191.18 65.4702V58.4702H192.35V65.4002C192.35 66.2402 192.61 66.5602 193.1 66.5602C193.59 66.5602 193.83 66.2402 193.83 65.4202V58.4902H195V65.3902Z" fill="black"/>
<path d="M200.381 65.2001C200.201 66.6601 199.861 67.7301 198.501 67.7301C196.961 67.7301 196.551 66.1701 196.551 63.0701C196.551 59.9701 196.941 58.3501 198.551 58.3501C199.811 58.3501 200.321 59.4401 200.381 60.9301L199.211 61.0901C199.151 60.0901 198.971 59.5201 198.541 59.5201C198.111 59.5201 197.771 60.0901 197.771 63.0101C197.771 65.9301 198.011 66.5601 198.591 66.5601C198.981 66.5601 199.141 66.1601 199.271 65.0401L200.381 65.2001Z" fill="black"/>
<path d="M205.469 67.5902H204.269L203.999 65.4002H202.749L202.459 67.5902H201.279L202.759 58.4902H203.999L205.469 67.5902ZM203.809 64.2702L203.469 61.7402C203.419 61.3102 203.369 60.9102 203.329 60.4802C203.329 60.9102 203.239 61.3102 203.189 61.7502L202.859 64.2702H203.809Z" fill="black"/>
<path d="M209.621 59.6402H208.331V67.6402H207.161V59.6402H205.881V58.4902H209.621V59.6402Z" fill="black"/>
<path d="M212.109 67.5902H210.939V58.4902H212.109V67.5902Z" fill="black"/>
<path d="M217.639 62.9998C217.639 65.9998 217.289 67.7198 215.639 67.7198C213.989 67.7198 213.689 66.0298 213.689 63.0598C213.689 60.0898 214.039 58.3398 215.689 58.3398C217.339 58.3398 217.639 60.0998 217.639 62.9998ZM216.439 63.0698C216.439 60.2598 216.189 59.5098 215.639 59.5098C215.089 59.5098 214.879 60.2498 214.879 62.9898C214.879 65.7298 215.099 66.5498 215.679 66.5498C216.259 66.5498 216.439 65.8198 216.439 63.0798V63.0698Z" fill="black"/>
<path d="M223 67.5902H222.17L221.09 64.2102C220.84 63.4302 220.45 62.1002 220.26 61.3802C220.26 62.0902 220.26 63.3802 220.26 64.0802V67.5902H219.15V58.4902H220.26L221.2 61.4302C221.37 61.9502 221.7 63.0302 221.88 63.7502C221.88 63.1002 221.88 61.9202 221.88 61.4402V58.4902H223V67.5902Z" fill="black"/>
<path d="M228.721 69.9999H227.631V57.1899H228.721V69.9999Z" fill="black"/>
<path d="M236.35 67.5902H233.35V58.4902H234.52V66.4402H236.34L236.35 67.5902Z" fill="black"/>
<path d="M238.881 67.5902H237.711V58.4902H238.881V67.5902Z" fill="black"/>
<path d="M244.519 67.5902H243.689L242.609 64.2102C242.369 63.4302 241.979 62.1002 241.779 61.3802C241.779 62.0902 241.779 63.3802 241.779 64.0802V67.5902H240.699V58.4902H241.809L242.759 61.4302C242.919 61.9502 243.249 63.0302 243.429 63.7502C243.429 63.1002 243.429 61.9202 243.429 61.4402V58.4902H244.529L244.519 67.5902Z" fill="black"/>
<path d="M250.001 67.5902H248.801L247.801 63.2102L247.521 63.9202V67.5902H246.301V58.4902H247.451V60.6602C247.451 61.1702 247.451 61.7702 247.451 62.1702C247.571 61.7802 247.861 60.9302 248.001 60.5602L248.751 58.4902H249.961L248.561 61.8702L250.001 67.5902Z" fill="black"/>
<path d="M252.449 67.5902H251.279V58.4902H252.449V67.5902Z" fill="black"/>
<path d="M258.09 67.5902H257.26L256.18 64.2102C255.93 63.4302 255.54 62.1002 255.35 61.3802C255.35 62.0902 255.35 63.3802 255.35 64.0802V67.5902H254.25V58.4902H255.35L256.3 61.4302C256.47 61.9502 256.8 63.0302 256.98 63.7502C256.98 63.1002 256.98 61.9202 256.98 61.4402V58.4902H258.09V67.5902Z" fill="black"/>
<path d="M263.519 64.9999C263.519 66.4199 263.099 67.7799 261.609 67.7799C259.929 67.7799 259.609 65.9399 259.609 63.0899C259.609 59.9999 259.999 58.3999 261.609 58.3999C262.849 58.3999 263.359 59.4699 263.439 60.9799L262.269 61.1399C262.199 60.1399 262.039 59.5699 261.609 59.5699C261.019 59.5699 260.829 60.2099 260.829 63.0899C260.829 65.6199 260.999 66.6199 261.649 66.6199C262.299 66.6199 262.389 66.1899 262.389 65.0799V63.9999H261.609V62.8699H263.529L263.519 64.9999Z" fill="black"/>
<path d="M271.47 61C271.47 62.86 270.47 63.65 269.42 63.65H269V67.58H267.83V58.48H269.49C270.58 58.49 271.47 59.13 271.47 61ZM270.29 61.07C270.29 60.07 270.03 59.59 269.46 59.59H269V62.59H269.41C270 62.56 270.29 62.1 270.29 61.08V61.07Z" fill="black"/>
<path d="M276.111 67.5902H274.901L274.611 65.4002H273.361L273.071 67.5902H271.891L273.371 58.4902H274.641L276.111 67.5902ZM274.451 64.2702L274.111 61.7402C274.061 61.3102 274.011 60.9102 273.971 60.4802C273.971 60.9102 273.881 61.3102 273.831 61.7502L273.501 64.2702H274.451Z" fill="black"/>
<path d="M281.17 67.5902H280L279.14 63.4902H278.61V67.5902H277.4V58.4902H279.05C280.15 58.4902 281.05 59.0502 281.05 60.9502C281.096 61.3598 281.043 61.7743 280.895 62.159C280.747 62.5436 280.509 62.887 280.2 63.1602L281.17 67.5902ZM279.88 61.0002C279.88 60.0002 279.62 59.5902 279.05 59.5902H278.57V62.4202H279C279.54 62.4302 279.88 62.0002 279.88 61.0002Z" fill="black"/>
<path d="M285.82 59.6402H284.53V67.6402H283.36V59.6402H282.08V58.4902H285.82V59.6402Z" fill="black"/>
<path d="M290.931 67.5902H290.091L289.001 64.2102C288.751 63.4302 288.361 62.1002 288.161 61.3802C288.161 62.0902 288.161 63.3802 288.161 64.0802V67.5902H287.061V58.4902H288.161L289.161 61.4302C289.331 61.9502 289.651 63.0302 289.831 63.7502C289.831 63.1002 289.831 61.9202 289.831 61.4402V58.4902H290.941L290.931 67.5902Z" fill="black"/>
<path d="M296 67.5902H292.68V58.4902H295.85V59.6402H293.85V62.2202H295.39V63.3602H293.85V66.4402H296V67.5902Z" fill="black"/>
<path d="M301.151 67.5902H299.941L299.091 63.4902H298.551V67.5902H297.381V58.4902H299.001C300.111 58.4902 301.001 59.0502 301.001 60.9502C301.047 61.3607 300.993 61.7763 300.843 62.1613C300.694 62.5463 300.453 62.8891 300.141 63.1602L301.151 67.5902ZM299.871 61.0002C299.871 60.0002 299.611 59.5902 299.031 59.5902H298.551V62.4202H299.001C299.531 62.4302 299.871 62.0002 299.871 61.0002Z" fill="black"/>
<path d="M305.999 65.5899C305.999 66.8099 305.329 67.7299 304.199 67.7299C303.069 67.7299 302.439 66.9399 302.289 65.3799L303.419 65.1999C303.539 66.1999 303.809 66.5199 304.199 66.5199C304.589 66.5199 304.829 66.2499 304.829 65.6899C304.829 64.8299 304.539 64.3599 303.639 63.2599C302.9 62.4797 302.448 61.471 302.359 60.3999C302.359 59.2599 302.939 58.3999 304.099 58.3999C305.259 58.3999 305.759 59.2699 305.929 60.4699L304.809 60.7099C304.679 59.9499 304.489 59.5799 304.109 59.5799C303.729 59.5799 303.539 59.8399 303.539 60.4299C303.539 61.0199 303.789 61.4999 304.539 62.4299C305.374 63.2847 305.889 64.4003 305.999 65.5899Z" fill="black"/>
<path d="M137.529 53.0498H309.739" stroke="black" stroke-width="0.78" stroke-miterlimit="10"/>
</svg>
